<?xml version="1.0" encoding="UTF-8"?>
<!DOCTYPE svg PUBLIC "-//W3C//DTD SVG 1.1//EN" "http://www.w3.org/Graphics/SVG/1.1/DTD/svg11.dtd">
<!-- Creator: CorelDRAW 2018 (64 Bit) -->
<svg xmlns="http://www.w3.org/2000/svg" xml:space="preserve" width="297mm" height="210mm" version="1.1" style="shape-rendering:geometricPrecision; text-rendering:geometricPrecision; image-rendering:optimizeQuality; fill-rule:evenodd; clip-rule:evenodd"
viewBox="0 0 29700 21000"
 xmlns:xlink="http://www.w3.org/1999/xlink">
 <defs>
  <style type="text/css">
   <![CDATA[
    .str0 {stroke:#201E1E;stroke-width:20;stroke-miterlimit:22.9256}
    .fil1 {fill:#A9ABAE}
    .fil0 {fill:#373435}
   ]]>
  </style>
 </defs>
 <g id="Capa_x0020_1">
  <metadata id="CorelCorpID_0Corel-Layer"/>
  <rect class="fil0 str0" x="-2199.25" y="-675.69" width="37422.41" height="21657.39"/>
  <path class="fil1" d="M13980.42 13722.15c-56.38,0.89 -343.81,-264.29 -428.06,-332.3l-291.81 -285.75c-120.53,-136.51 -206.91,-234.26 -319.27,-387.88 -272.18,-372.13 -526.19,-845.02 -675.4,-1381.22 -75.94,-272.91 -138.94,-571.55 -155.3,-872.29 -4.16,-76.46 -16.34,-162.56 -16.15,-235.74 0.22,-86.3 -0.45,-172.68 -0.09,-258.97 0.27,-65.65 37.45,-410.02 45.69,-471.14 105.24,-780.46 451.3,-1560.15 937.55,-2145.07 58.96,-70.93 114.26,-141.49 178.89,-204.7 21.76,-21.28 38.04,-47.07 61.65,-67.81 50.24,-44.13 82.94,-81.59 129.17,-129.51 22.42,-23.24 43.72,-36.47 67.3,-62.16 11.34,-12.35 21.68,-19 34.74,-30.07 12.91,-10.94 20.2,-20.5 33.75,-30.88l137.53 -116.63c143,-117.7 288.61,-218.41 450.64,-321.11 710.31,-450.25 1534,-674.98 2423.91,-663.4 573.55,7.46 1218.91,168.14 1678.04,378.64 232.84,106.76 450.62,228.15 659.72,366.18 103.1,68.06 208.16,138.82 299.39,213.64 48.52,39.8 94.82,78.99 140.19,118.65l67.18 62.22c28.01,27.41 48.29,40.47 67.38,62.04 56.78,64.15 133.6,126.1 191.44,192.15l120.36 133.76c62.42,66.54 117.71,140.06 173.89,214.32 143.55,189.78 273.29,395.61 399.29,631.31 240.56,449.98 413.46,1010.95 470.63,1585.77 6.89,69.23 24.05,293.19 23.72,363.19 -0.2,42.9 -0.89,85.81 -1.04,128.73 -0.43,126.11 -17.99,353.48 -33.42,480.58 -81.7,673.03 -319.22,1328.86 -688.5,1881.44 -71.59,107.12 -143.93,201.78 -219.24,298.36 -38.17,48.95 -75.7,93.76 -114.46,139.83 -21.41,25.44 -40.29,44.86 -60.13,69.28l-251.1 261.82c-63.06,67.27 -284.1,251.75 -345.53,296.83 -49.82,36.57 -97.99,74.34 -149.3,109.54 -276.22,189.5 -513.71,320.06 -825.98,458.73 -498.14,221.22 -1154.56,353.79 -1713.45,345.02 -152.95,-2.4 -842.54,-43.14 -926.68,-104.51 -2.31,-32.54 6.28,-64.6 6.37,-100.5 0.7,-255.93 -10.71,-511.14 -12.29,-767.24 -1.83,-297.55 -0.36,-594.47 0.59,-891.98 1.89,-593.41 9.46,-1185.46 5.48,-1779.33 -1.96,-292.53 -9.16,-585.53 -11.52,-878.12 -4.24,-526.97 -21.81,-1198.38 61.25,-1713.33 20.49,-127.02 48.83,-240.05 107.04,-341.31 165.76,-288.36 454.71,-475.5 806.42,-533.34 382.84,-62.96 743.68,62.25 963.16,344.91 207.21,266.85 310.94,714.14 250.57,1062.84 -107.98,623.63 -711.72,885.77 -1288.08,939.85 -126.35,11.85 -312.92,-14.74 -325.08,124.53 -5.79,66.4 40.19,123.23 91.48,132.24 52.49,9.22 156.44,4.15 218.89,9.32 605.93,50.11 1063.6,383.39 1284.44,946.58 166.43,424.42 123.89,949.65 -152.72,1322.57 -16.59,22.36 -35.02,41.86 -51.93,63.57 -53,68.07 -170.43,155.9 -242.82,200.74 -520.63,322.49 -1321.22,268.19 -1426.91,357.19 -49.42,41.62 -59,105.54 -9.07,147.59 202.9,170.9 1516.16,-9.88 1805.74,-69.66 223.83,-46.2 481.84,-128.87 667.36,-225.09 104.66,-54.29 190.57,-99.36 282.29,-161.43 269.46,-182.37 493.81,-421.31 615.69,-729.18 191.51,-483.78 90.3,-987.09 -221.02,-1377.74 -35.48,-44.51 -69.6,-76.47 -107.38,-114.55 -110.84,-111.75 -244.62,-206.4 -395.42,-274.69 -184.8,-83.68 -306.65,-111.88 -503.48,-166.55 -52.12,-14.48 -129.46,-32.36 -170.77,-55.4 17.85,-11.56 163.98,-37.76 198.96,-46.37 66.67,-16.42 130.04,-34.94 192.91,-57.08 346.45,-122.03 633.89,-335.66 791.02,-692.58 254.17,-577.35 -10.45,-1163.12 -338.79,-1439.64 -71.98,-60.61 -194.8,-152.26 -298.07,-196.45 -117.41,-50.26 -223.64,-100.3 -356.23,-138.47 -267.47,-77 -531.74,-133.81 -823.34,-169.5 -765.5,-93.68 -1867.05,-92.93 -2498.49,379.1 -192.81,144.14 -328.48,289.2 -458.51,530.62 -251.66,467.26 -266.47,1138.12 -253.73,1728.17 14.14,655.15 12.04,1308.84 17.79,1964.14 2.88,328.15 4.6,656.25 4.93,984.42l-1.09 744.08c-0.82,77.81 2.81,170.33 -2.78,246.18zm-2090.1 -3630.86l0 123.44c0.98,2.2 10.19,238.74 12.17,266.28 34.33,479.28 140.16,946.63 317.83,1389.14 182.46,454.43 455.52,914.24 777.01,1284.45l31.46 38.01c57.47,68.27 145.55,156.49 209.4,220.32 46.82,46.81 93.97,91.29 142.03,139.91l113.47 99.09c6.47,5.48 12.76,12.61 19.17,17.89 142.3,117.04 263.35,216.65 423.22,320.76 28.97,18.87 56.17,37.46 86.21,56.95 305.12,197.97 611.44,339.7 957.07,466.63 143.36,52.65 289.48,90.9 438.66,129.82 218.89,57.11 506.45,99.96 737.92,116.7 26.41,1.91 270.52,13.71 271.11,13.98l169.83 0c0.76,-0.34 240.27,-11.69 266.49,-13.65 235.09,-17.65 513.32,-57.71 735.13,-115.1 290.65,-75.19 578.81,-164.86 841.7,-290.83 62.54,-29.97 132.01,-60.64 189.25,-92.5 308.61,-171.78 386.74,-211.97 692.67,-439.82 54.51,-40.6 220.04,-175.84 269.99,-224.56 15.52,-15.15 25.82,-19.79 40.17,-33.74 50.39,-49 96.43,-94.54 144.23,-142.29l397.43 -448.4c40.93,-54.89 83.91,-110.75 121.46,-165.11 255.8,-370.29 419.68,-689.2 576.52,-1119.53 49.24,-135.11 99.9,-296.14 130.66,-437.8 59.35,-273.4 95.14,-448.85 116.61,-733.23 2.24,-29.76 13.45,-268.99 14.43,-271.28l0 -187.62c-1.01,-2.37 -12.24,-242.36 -14.43,-271.28 -28.91,-381.67 -117.84,-815.21 -247.26,-1171.03 -211.8,-582.25 -432.64,-949.02 -796.26,-1408.2l-132.25 -149.81c-8.71,-9.95 -7.61,-11.44 -15.63,-21.23l-227.38 -230.1 -383.64 -328.23c-51.62,-41.3 -110.51,-81.58 -163.19,-118.72 -347.19,-244.75 -723.62,-432.28 -1125.97,-574.78 -375.46,-132.98 -778.32,-210.5 -1178.28,-241.75 -25.45,-1.99 -264.05,-12.34 -264.83,-12.71l-143.15 0c-3.59,1.52 -241.35,10.75 -271.46,13.12 -272.64,21.45 -477.24,54.78 -740.3,114.85 -148.3,33.87 -297.32,79.7 -439.65,129.3 -70.78,24.67 -140.62,50.53 -208.15,78.09 -231.18,94.36 -353.4,158.68 -574.95,280.31 -115.39,63.34 -239.89,148.77 -347.38,221.09 -70.11,47.17 -295.71,219.52 -360.97,281.57l-95.5 84.68c-36.17,26.21 -187.2,179.29 -231.29,226.21 -20.68,22.01 -52.16,49.05 -70.76,72.57l-132.71 153.7c-21.12,24.4 -45.47,52.55 -64.52,78.83 -38.39,52.94 -81.54,101.99 -124.25,162.41 -104.32,147.55 -187.48,269.56 -278.42,428.83 -100.27,175.61 -156.73,292.16 -237.24,474.35 -201.37,455.7 -325.56,994.64 -361.31,1493.74 -1.98,27.54 -11.19,264.07 -12.17,266.28z"/>
 </g>
</svg>
